<?xml version="1.0" encoding="UTF-8" standalone="no"?>
<svg
   viewBox="0 0 467 467"
   version="1.1"
   id="svg263"
   sodipodi:docname="app_icon.svg"
   width="467"
   height="467"
   inkscape:version="1.2.2 (b0a8486541, 2022-12-01)"
   inkscape:export-filename="app_icon.png"
   inkscape:export-xdpi="6.5781584"
   inkscape:export-ydpi="6.5781584"
   xmlns:inkscape="http://www.inkscape.org/namespaces/inkscape"
   xmlns:sodipodi="http://sodipodi.sourceforge.net/DTD/sodipodi-0.dtd"
   xmlns:xlink="http://www.w3.org/1999/xlink"
   xmlns="http://www.w3.org/2000/svg"
   xmlns:svg="http://www.w3.org/2000/svg">
  <sodipodi:namedview
     id="namedview265"
     pagecolor="#ffffff"
     bordercolor="#000000"
     borderopacity="0.25"
     inkscape:showpageshadow="2"
     inkscape:pageopacity="0.0"
     inkscape:pagecheckerboard="0"
     inkscape:deskcolor="#d1d1d1"
     showgrid="false"
     inkscape:zoom="0.72714419"
     inkscape:cx="-50.196372"
     inkscape:cy="171.90538"
     inkscape:window-width="1920"
     inkscape:window-height="1011"
     inkscape:window-x="0"
     inkscape:window-y="0"
     inkscape:window-maximized="1"
     inkscape:current-layer="svg263" />
  <defs
     id="defs121">
    <linearGradient
       id="c">
      <stop
         stop-color="#fff"
         stop-opacity=".66497"
         offset="0"
         id="stop2" />
      <stop
         stop-color="#fff"
         stop-opacity="0"
         offset="1"
         id="stop4" />
    </linearGradient>
    <linearGradient
       id="d">
      <stop
         stop-color="#000082"
         offset="0"
         id="stop7" />
      <stop
         stop-color="#5e5cc2"
         offset=".5"
         id="stop9" />
      <stop
         stop-color="#03005c"
         offset="1"
         id="stop11" />
    </linearGradient>
    <linearGradient
       id="e">
      <stop
         offset="0"
         id="stop14" />
      <stop
         stop-color="#3c3c3c"
         offset="1"
         id="stop16" />
    </linearGradient>
    <linearGradient
       id="f">
      <stop
         stop-color="#2d56ff"
         offset="0"
         id="stop19" />
      <stop
         stop-color="#5f78e5"
         offset="1"
         id="stop21" />
    </linearGradient>
    <linearGradient
       id="a">
      <stop
         stop-color="#787878"
         offset="0"
         id="stop24" />
      <stop
         stop-color="#bbb"
         offset=".57143"
         id="stop26" />
      <stop
         stop-color="#ddd"
         offset=".57143"
         id="stop28" />
      <stop
         stop-color="#fff"
         offset="1"
         id="stop30" />
    </linearGradient>
    <linearGradient
       id="g">
      <stop
         stop-color="#f2efef"
         stop-opacity=".69804"
         offset="0"
         id="stop33" />
      <stop
         stop-color="#3f5ebe"
         stop-opacity="0"
         offset="1"
         id="stop35" />
    </linearGradient>
    <linearGradient
       id="h">
      <stop
         stop-color="#fff"
         offset="0"
         id="stop38" />
      <stop
         stop-color="#fff"
         stop-opacity="0"
         offset="1"
         id="stop40" />
    </linearGradient>
    <linearGradient
       id="b">
      <stop
         stop-color="#3a3a3a"
         stop-opacity="0"
         offset="0"
         id="stop43" />
      <stop
         stop-color="#f7f7f7"
         stop-opacity=".44366"
         offset="1"
         id="stop45" />
    </linearGradient>
    <linearGradient
       id="ae"
       x1="148.22"
       x2="243.62"
       gradientUnits="userSpaceOnUse">
      <stop
         stop-color="#c8c8c8"
         stop-opacity=".38028"
         offset="0"
         id="stop48" />
      <stop
         stop-color="#b8b8b8"
         stop-opacity=".78873"
         offset="1"
         id="stop50" />
    </linearGradient>
    <linearGradient
       id="ac"
       x1="180.14999"
       x2="198.13"
       y1="870.5"
       y2="896.16998"
       gradientUnits="userSpaceOnUse">
      <stop
         stop-color="#f2efef"
         stop-opacity=".17766"
         offset="0"
         id="stop53" />
      <stop
         stop-color="#dee6fb"
         stop-opacity=".88325"
         offset="1"
         id="stop55" />
    </linearGradient>
    <linearGradient
       id="aa"
       x1="-71.656998"
       x2="2.9914"
       y1="901.73999"
       y2="942.40997"
       gradientUnits="userSpaceOnUse">
      <stop
         stop-color="#0d2587"
         offset="0"
         id="stop58" />
      <stop
         stop-color="#fff"
         stop-opacity=".76142"
         offset="1"
         id="stop60" />
    </linearGradient>
    <linearGradient
       id="y"
       x1="-64.273003"
       x2="-27.306"
       y1="925.15002"
       y2="958.85999"
       gradientUnits="userSpaceOnUse">
      <stop
         stop-color="#fff"
         stop-opacity=".76761"
         offset="0"
         id="stop63" />
      <stop
         stop-color="#2247a0"
         stop-opacity=".17255"
         offset="1"
         id="stop65" />
    </linearGradient>
    <linearGradient
       id="x"
       x1="-85.272003"
       x2="-60.77"
       y1="914.08002"
       y2="934.28998"
       gradientUnits="userSpaceOnUse">
      <stop
         stop-color="#faf7f7"
         stop-opacity=".79695"
         offset="0"
         id="stop68" />
      <stop
         stop-color="#c5d3ff"
         stop-opacity=".40392"
         offset="1"
         id="stop70" />
    </linearGradient>
    <linearGradient
       id="w"
       x1="-27.688999"
       x2="-24.646"
       y1="946.92999"
       y2="953.21997"
       gradientUnits="userSpaceOnUse">
      <stop
         stop-color="#f8f8f8"
         offset="0"
         id="stop73" />
      <stop
         stop-color="#08048c"
         offset="1"
         id="stop75" />
    </linearGradient>
    <linearGradient
       id="q"
       x1="52.827"
       x2="68.885002"
       y1="989.92999"
       y2="1002.9"
       gradientUnits="userSpaceOnUse">
      <stop
         stop-color="#fff"
         stop-opacity=".54822"
         offset="0"
         id="stop78" />
      <stop
         stop-color="#b2b2b2"
         stop-opacity="0"
         offset="1"
         id="stop80" />
    </linearGradient>
    <linearGradient
       id="ak"
       x1="185.28999"
       x2="218.23"
       y1="911.46002"
       y2="882.40002"
       gradientUnits="userSpaceOnUse"
       xlink:href="#f" />
    <linearGradient
       id="aj"
       x1="71.523003"
       x2="138.21001"
       gradientTransform="matrix(0.82037,-0.15397,0,0.8717,134.9,86.572)"
       gradientUnits="userSpaceOnUse"
       xlink:href="#e" />
    <linearGradient
       id="ai"
       x1="101.14"
       x2="192.37"
       y1="910.40002"
       y2="911.82001"
       gradientUnits="userSpaceOnUse"
       xlink:href="#f" />
    <linearGradient
       id="ah"
       x1="71.523003"
       x2="138.21001"
       gradientUnits="userSpaceOnUse"
       xlink:href="#e" />
    <linearGradient
       id="ag"
       x1="87.753998"
       x2="147"
       gradientUnits="userSpaceOnUse"
       xlink:href="#b" />
    <linearGradient
       id="af"
       x1="93.191002"
       x2="126.85"
       gradientUnits="userSpaceOnUse"
       xlink:href="#b" />
    <linearGradient
       id="ad"
       x1="146.98"
       x2="167.69"
       y1="858.62"
       y2="898.83002"
       gradientUnits="userSpaceOnUse"
       xlink:href="#g" />
    <linearGradient
       id="ab"
       x1="-64.121002"
       x2="0.099270001"
       gradientUnits="userSpaceOnUse"
       xlink:href="#h" />
    <linearGradient
       id="z"
       x1="-53.928001"
       x2="-108.05"
       y1="975.35999"
       y2="936.09003"
       gradientUnits="userSpaceOnUse"
       xlink:href="#b" />
    <linearGradient
       id="v"
       x2="0"
       y1="921.06"
       y2="952.48999"
       gradientUnits="userSpaceOnUse"
       xlink:href="#g" />
    <linearGradient
       id="u"
       x1="83.795998"
       x2="76.990997"
       y1="992.89001"
       y2="975.92999"
       gradientUnits="userSpaceOnUse"
       xlink:href="#a" />
    <linearGradient
       id="t"
       x1="80.905998"
       x2="72.210999"
       y1="976.79999"
       y2="991.94"
       gradientUnits="userSpaceOnUse"
       xlink:href="#a" />
    <linearGradient
       id="s"
       x1="30.646999"
       x2="66.767998"
       gradientUnits="userSpaceOnUse"
       xlink:href="#h" />
    <linearGradient
       id="r"
       x1="80.905998"
       x2="70.706001"
       y1="974.75"
       y2="991.94"
       gradientTransform="matrix(0.7508,0,0,0.85918,-34.666,100.75)"
       gradientUnits="userSpaceOnUse"
       xlink:href="#a" />
    <linearGradient
       id="p"
       x1="66.038002"
       x2="74.283997"
       y1="984.34998"
       y2="996.32001"
       gradientUnits="userSpaceOnUse"
       xlink:href="#d" />
    <linearGradient
       id="o"
       x1="23.780001"
       x2="16.365"
       y1="956.35999"
       y2="951.64001"
       gradientUnits="userSpaceOnUse"
       xlink:href="#d" />
    <linearGradient
       id="n"
       x1="102.08"
       x2="146.48"
       y1="886.76001"
       y2="910.62"
       gradientUnits="userSpaceOnUse"
       xlink:href="#c" />
    <linearGradient
       id="m"
       x1="146.92999"
       x2="214.75999"
       gradientUnits="userSpaceOnUse"
       xlink:href="#c" />
    <radialGradient
       id="l"
       cx="82.416"
       cy="892.32001"
       r="7.8653998"
       gradientTransform="matrix(1,0,0,1.2174,0,-193.98)"
       gradientUnits="userSpaceOnUse">
      <stop
         stop-color="#7b7b7b"
         offset="0"
         id="stop101" />
      <stop
         stop-color="#fff"
         offset="1"
         id="stop103" />
    </radialGradient>
    <radialGradient
       id="k"
       cx="160.81"
       cy="929.59003"
       r="5.5737"
       gradientTransform="matrix(0.96953,-0.15234,0.22681,1.4435,-205.95,-387.08)"
       gradientUnits="userSpaceOnUse">
      <stop
         stop-color="#b5b5b5"
         offset="0"
         id="stop106" />
      <stop
         stop-color="#fff"
         offset="1"
         id="stop108" />
    </radialGradient>
    <radialGradient
       id="j"
       cx="16.063"
       cy="960.34998"
       r="3.2026"
       gradientTransform="matrix(-0.98371,0.14634,-0.17942,-1.0765,205.93,1990.4)"
       gradientUnits="userSpaceOnUse">
      <stop
         stop-color="#3d54a1"
         offset="0"
         id="stop111" />
      <stop
         stop-color="#c4c2be"
         offset="1"
         id="stop113" />
    </radialGradient>
    <radialGradient
       id="i"
       cx="70.872002"
       cy="1002"
       r="4.3593998"
       gradientTransform="matrix(-1,0.68622,-0.71767,-1.0458,864.2,1999.1)"
       gradientUnits="userSpaceOnUse">
      <stop
         stop-color="#3d54a1"
         offset="0"
         id="stop116" />
      <stop
         stop-color="#fff2d6"
         stop-opacity=".74619"
         offset="1"
         id="stop118" />
    </radialGradient>
  </defs>
  <g
     transform="matrix(-1.9236,0,0,1.9236,491.03294,-1565.0286)"
     id="g261">
    <path
       transform="matrix(0.86957,0,0.33333,1,-289.54,-3.6477)"
       d="m 90.281,892.32 a 7.8655,9.5754217 0 1 1 -15.731,0 7.8655,9.5754217 0 1 1 15.731,0 z"
       fill="url(#l)"
       fill-rule="evenodd"
       id="path123"
       style="fill:url(#l)" />
    <path
       d="m 172.61,864.96 13.738,-5.6361 c 0,0 38.044,13.386 40.157,14.795 2.113,1.409 14.795,22.544 14.795,22.544 l -27.124,16.204 -16.556,-21.84 -25.01,-26.067 z"
       fill="#000052"
       fill-rule="evenodd"
       id="path125" />
    <path
       d="m 224.39,884.86 c 0,0 -6.3406,6.6929 -6.869,9.5109 -0.5284,2.818 -2.6419,15.852 -2.6419,15.852 l -1.7613,20.255 -43.856,1.5852 -12.681,-29.942 -23.425,-12.153 -4.051,-17.613 39.1,-13.21 c 0,0 26.595,8.1019 37.339,14.971 10.744,6.8691 19.022,10.92 18.846,10.744 z"
       fill="url(#ak)"
       fill-rule="evenodd"
       id="path127"
       style="fill:url(#ak)" />
    <path
       transform="matrix(0.50587,-0.09494,-0.28268,0.74449,456.14,201.92)"
       d="m 154.16,1011.3 a 23.125,27.75 0 1 1 -46.249,0 23.125,27.75 0 1 1 46.249,0 z"
       fill-rule="evenodd"
       id="path129" />
    <path
       d="m 248.2,922.38 -23.042,40.016 -31.584,-14.574 31.981,-47.005 22.646,21.562 z"
       fill="url(#aj)"
       fill-rule="evenodd"
       id="path131"
       style="fill:url(#aj)" />
    <path
       transform="matrix(0.39987,-0.075048,-0.22345,0.58809,410.13,356.88)"
       d="m 154.16,1011.3 a 23.125,27.75 0 1 1 -46.249,0 23.125,27.75 0 1 1 46.249,0 z"
       fill="#eff5ff"
       fill-rule="evenodd"
       id="path133" />
    <path
       d="m 94.381,869.2 -10.748,18.258 0.44172,2.3558 13.841,-5.7423 1.6196,-15.902 c 0,0 5.8896,-2.9448 6.1841,-2.3558 0.2945,0.589 1.0307,5.3006 1.0307,5.3006 l -5.8896,0.88343 -1.0307,13.399 45.644,-13.693 13.546,29.301 -17.522,31.804 -69.939,-26.209 4.5644,-14.871 17.963,-24.589 0.29448,2.0614 z"
       fill="#0d2587"
       fill-rule="evenodd"
       id="path135" />
    <path
       d="m 131.42,878.07 c 0,0 -7.262,-0.88561 -11.159,5.1365 -3.897,6.02211 -13.461,37.55 -13.461,37.55 l 81.653,12.221 c 0,0 4.2509,-22.317 3.8967,-24.089 -0.3542,-1.772 -2.1255,-6.9077 -6.5535,-10.096 -4.428,-3.1883 -24.089,-13.815 -36.31,-17.535 -12.221,-3.72 -17.712,-3.5424 -18.066,-3.1882 z"
       fill="url(#ai)"
       fill-rule="evenodd"
       id="path137"
       style="fill:url(#ai)" />
    <path
       d="m 138.11,983.23 -28.088,40.945 -38.5,-23.519 38.983,-47.038 27.604,29.611 z"
       fill="url(#ah)"
       fill-rule="evenodd"
       id="path139"
       style="fill:url(#ah)" />
    <path
       transform="matrix(0.61663,0,-0.34457,0.79321,391.58,201.49)"
       d="m 154.16,1011.3 a 23.125,27.75 0 1 1 -46.249,0 23.125,27.75 0 1 1 46.249,0 z"
       fill-rule="evenodd"
       id="path141" />
    <path
       transform="matrix(0.48743,0,-0.27238,0.62654,335.5,369.35)"
       d="m 154.16,1011.3 a 23.125,27.75 0 1 1 -46.249,0 23.125,27.75 0 1 1 46.249,0 z"
       fill="#eff5ff"
       fill-rule="evenodd"
       id="path143" />
    <path
       d="m 130.97,987.99 c -10.937,3.0844 -18.231,15.352 -18.031,26.445 1.3262,4.6301 4.8858,4.8854 10.109,1.0076 8.2038,-6.5706 13.765,-17.799 12.059,-25.268 -0.74194,-2.2238 -2.8761,-2.394 -4.1367,-2.1842 z"
       fill="none"
       stroke="#656565"
       stroke-width="0.9"
       id="path145" />
    <path
       d="m 153.66,844.91 c -4.4956,-0.0123 -7.54,0.24436 -8.4375,0.46875 -2.8722,0.71804 -21.907,6.2994 -30.344,8.8125 -8.437,2.5131 -18.656,7.1875 -18.656,7.1875 0,0 -3.6032,2.5094 -5.2188,4.125 -1.6156,1.6156 -7.5181,11.66 -10.031,15.969 -2.5129,4.309 -11.312,19.562 -11.312,19.562 l -26.25,14.5 c 0,0 -7.6218,7.8776 -11.938,11.812 -4.3162,3.9344 -8.125,8.875 -8.125,8.875 l -3.25,13.094 -5.1875,5.4062 -1.25,9.1562 c 0,0 12.208,12.386 25.312,23.156 13.104,10.77 35.531,22.06205 35.531,22.06305 l 2.7812,0.375 1.875,8.7812 c 0,0 6.3708,2.148 14,-2.25 7.6292,-4.398 13.262,-16.44005 16.5,-21.75005 0,1e-5 11.934,-15.694 20.5,-14.469 2.9135,0.41673 4.2241,-0.31552 8.4062,4.0938 3.379,3.5625 2.4735,12.848 3.2812,13.656 1.6156,1.6155 2.7781,4.35695 6.4375,2.25 0,0 5.9148,-3.239 14.531,-7.9062 8.6162,-4.6672 57.281,-32.844 57.281,-32.844 0,0 1.949,-8.9766 5.7188,-16.875 3.7698,-7.8984 9.8894,-17.057 16.531,-19.75 1.7694,-0.71733 5.198,-0.73251 6.1875,0.15104 l 1.0313,-0.46354 c 0.005,-4.6362 -0.15735,-9.7283 -0.75,-12.438 -1.2566,-5.7443 -3.7812,-7.1875 -3.7812,-7.1875 l -0.1875,-2.3438 1.8125,-1.7812 c 0,0 -10.057,-19.395 -12.75,-23.344 -2.693,-3.949 -12.212,-14.165 -36.625,-22.781 -16.784,-5.9238 -33.735,-7.2855 -43.625,-7.3125 z m -60.156,22.594 c 3.517,0.056 11.058,1.3472 26.219,7.7812 24.456,10.379 28.716,14.092 33.625,17.844 2.088,1.6368 1.6792,6.8227 -2.125,15.094 -7.318,15.911 -10.813,17.925 -12.625,18 -1.812,0.075 -9.9801,-1.9446 -36.625,-15.531 -26.6449,-13.5864 -24.969,-15.173 -24.969,-17.438 -0.30192,0.15097 1.2096,-4.9706 3.625,-8.5938 2.4154,-3.6232 10.094,-16.781 10.094,-16.781 0,0 0.67102,-0.40859 2.7812,-0.375 z m 127.81,8.9062 c 8.8908,0.0363 13.794,11.452 12.812,15.844 -0.57843,2.5874 -3.4925,3.9331 -4.25,4.375 -0.7575,0.4419 -17.906,8.0938 -17.906,8.0938 0,0 -2.3962,1.2212 -3.4062,0.96875 -1.01,-0.25245 -1.2188,-1.1225 -1.2188,-1.375 l -0.0937,-21.438 c 0,3e-5 1.0675,-5.4906 13.188,-6.4375 0.29499,-0.0232 0.5882,-0.0324 0.875,-0.0312 z m -23.75,5.375 c 1.1588,-0.0679 1.887,0.34805 2.75,1.5312 1.2739,1.7465 1.3543,4.0088 1.6562,10.5 0.3019,6.4912 0.0101,12.282 -0.59375,14.094 -0.60383,1.812 -3.9096,3.3938 -5.3438,4.375 -1.4342,0.9812 -10.886,5.1886 -25.906,11.906 -15.02,6.7174 -14.844,1.0937 -14.844,1.0938 0.0534,-2.6777 0.69193,-6.2655 1.3125,-8.0312 0.61502,-1.7499 4.5624,-13.037 7.2812,-18.031 1.4386,-2.6426 3.5486,-5.1335 4.75,-5.8125 3.472,-1.9625 23.231,-10.126 26.25,-11.031 1.1322,-0.33965 1.9922,-0.553 2.6875,-0.59375 z"
       fill="#002059"
       fill-rule="evenodd"
       id="path147" />
    <path
       d="m 129.77,979.39 -1.3618,0.3301 c 0.5892,-0.057 1.1855,-0.0183 1.75,0.0624 2.9135,0.4168 4.2241,-0.3155 8.4062,4.0938 3.379,3.5625 2.4735,12.848 3.2812,13.656 1.3245,1.3245 2.3448,3.3902 4.6875,2.9376 0.33474,-2.1639 0.27894,-5.0555 -0.59375,-9 -3.0151,-13.628 -16.169,-12.08 -16.169,-12.08 z"
       fill="#052355"
       fill-rule="evenodd"
       id="path149" />
    <path
       d="m 81.797,887.04 c -1.6475,3.431 -4.0156,7.5388 0.078,9.7113 15.89,9.7534 31.27,16.247 47.502,24.057 6.971,3.4848 10.664,3.3204 12.881,-0.71875 4.8739,-7.9305 7.4998,-13.862 9.8555,-22.437 0.17977,-3.2296 -5.9954,-6.2032 -9.8945,-9.0312 -14.939,-8.0962 -36.783,-18.558 -49.636,-18.736 -3.0741,5.1778 -5.8471,9.822 -10.786,17.156 z m -4.8061,6.2088 c 0,2.2644 -1.6606,3.8496 24.984,17.436 26.6446,13.5864 34.797,15.625 36.608,15.549 1.811,-0.076 5.3252,-2.0915 12.643,-18.002 3.8042,-8.271 4.2015,-13.46 2.1135,-15.096 -4.9094,-3.7521 -9.1711,-7.4724 -33.627,-17.851 -24.257,-10.294 -28.985,-7.3972 -28.985,-7.3972 0,0 -7.6991,13.134 -10.114,16.757 -2.4149,3.623 -3.925,8.7558 -3.6231,8.6049 z"
       fill="#ffffff"
       fill-rule="evenodd"
       id="path151" />
    <path
       d="m 197.56,881.78 c -0.69531,0.0408 -1.5553,0.2541 -2.6875,0.59375 -3.0192,0.90575 -22.778,9.0688 -26.25,11.031 -1.2014,0.67904 -3.3114,3.1699 -4.75,5.8125 -2.7189,4.9945 -6.6662,16.281 -7.2812,18.031 -0.62057,1.7657 -1.2591,5.3535 -1.3125,8.0312 0,-2e-5 -0.17658,5.6239 14.844,-1.0938 15.02058,-6.7177 24.472,-10.925 25.906,-11.906 1.434,-0.981 4.7399,-2.5635 5.3438,-4.375 0.6039,-1.8115 0.89566,-7.6026 0.59375,-14.094 -0.30191,-6.4914 -0.38234,-8.7535 -1.6562,-10.5 -0.86302,-1.1832 -1.5912,-1.5992 -2.75,-1.5312 z m 0.0937,1.9688 c 0.38085,-0.031 0.68413,-0.0166 0.90625,0.0625 1.5414,1.5992 1.9473,16.284 1.25,23.031 -3.3583,3.4634 -10.234,6.3215 -13.844,7.9688 -3.566,1.6864 -6.4943,3.0849 -10.781,4.9688 l 0.65625,-27.344 c 3.7248,-1.865 6.1883,-2.9035 9.875,-4.4375 3.1546,-1.3752 9.2715,-4.0332 11.938,-4.25 z m -23.719,9.6562 -0.625,27.188 c -3.2651,1.4114 -7.1067,3.0368 -12.875,5.375 -3.6164,0.87552 -3.5031,-2.4762 -2.6875,-4.8438 3.3879,-8.969 5.2834,-16.735 10.781,-24.844 2.1422,-1.1742 3.8704,-2.077 5.4062,-2.875 z"
       fill="#ffffff"
       fill-rule="evenodd"
       id="path153" />
    <path
       d="m 207.35,904.31 -0.11506,-21.44 c 0,0 1.0731,-5.4919 13.193,-6.4388 9.4397,-0.74134 14.719,11.296 13.706,15.829 -0.57843,2.5874 -3.5196,3.9213 -4.2771,4.3632 -0.7575,0.4419 -17.887,8.0877 -17.887,8.0877 0,0 -2.4099,1.2401 -3.4199,0.98761 -1.01,-0.25249 -1.1994,-1.1362 -1.1994,-1.3888 z m 13.305,-26.585 c -2.815,-0.0962 -7.4426,1.4033 -9.7793,2.9842 -2.3367,1.5809 -2.3828,3.2433 -2.2124,6.9478 0.0682,2.8328 0.0627,5.5576 0.13955,8.427 0.0385,1.4124 -0.12761,7.8301 0.0819,8.083 4.7449,-1.4856 7.6475,-2.9018 11.503,-4.7548 6.0149,-2.773 11.88,-4.486 12.446,-7.1919 0.83837,-4.0094 -3.9002,-14.475 -12.179,-14.495 z"
       fill="#ffffff"
       fill-rule="evenodd"
       id="path155" />
    <path
       transform="matrix(0.97386,-0.31051,0,0.98976,2.0402,42.561)"
       d="m 112.07,975.95 a 3.4036,1.8909 0 1 1 -6.8072,0 3.4036,1.8909 0 1 1 6.8072,0 z"
       fill="#f69807"
       fill-rule="evenodd"
       opacity="0.75"
       id="path157" />
    <path
       d="m 218.78,868.78 c -1.0889,0 -26.591,9.9916 -31.219,11.625 -4.628,1.6334 -20.779,9.5138 -22.594,10.875 -1.815,1.3612 -4.5312,8.625 -4.5312,8.625 0,0.0908 4.3456,-6.905 5.3438,-7.8125 0.9982,-0.9075 13.794,-6.6893 16.062,-7.6875 1.7343,-0.7631 31.505,-12.07 34.5,-13.25 2.022,-0.79653 3.4011,-1.041 4.125,-1.125 l 0.71875,-1.25 h -2.4062 z"
       fill-opacity="0.45178"
       fill-rule="evenodd"
       id="path159" />
    <path
       d="m 88.254,968.12 c 0,0 16.419,-0.8796 23.945,-3.323 7.526,-2.4434 13.976,-4.398 21.99,-7.5255 8.014,-3.1275 12.314,-5.2776 12.314,-5.2776 l -0.0977,3.323 c 0,0 -2.6388,0.48867 -6.1572,2.2479 -3.5184,1.75923 -11.435,7.0368 -18.667,9.2847 -7.232,2.2479 -5.7663,2.4434 -14.758,4.6912 -8.9917,2.2478 -15.54,2.2479 -15.54,2.2479 L 88.2533,968.12 Z"
       fill="url(#ag)"
       fill-rule="evenodd"
       id="path161"
       style="fill:url(#ag)" />
    <path
       d="m 125.61,972.84 1.2426,1.6944 c 0,0 -3.5017,1.4685 -13.781,10.279 -10.2793,8.8105 -17.735,18.977 -17.735,18.977 l -2.1462,-11.409 c 0,0 15.927,-12.99 22.14,-16.492 6.213,-3.502 10.392,-3.1628 10.279,-3.0499 z"
       fill="url(#af)"
       fill-rule="evenodd"
       id="path163"
       style="fill:url(#af)" />
    <path
       d="m 148.22,950.81 0.15769,1.8922 c 0,0 25.624,-11.038 40.998,-18.607 15.374,-7.569 23.495,-13.403 29.408,-15.138 5.913,-1.735 17.109,-4.1786 20.657,-6.2285 3.548,-2.0499 4.7305,-5.9132 3.9421,-6.5439 -0.7884,-0.6307 -4.494,1.1038 -9.6976,3.2325 -5.2036,2.1287 -23.258,11.669 -27.279,13.561 -4.021,1.892 -38.238,17.661 -41.392,19.237 -3.154,1.576 -12.851,5.992 -13.797,6.5439 -0.946,0.5519 -2.7595,1.971 -2.996,2.0499 z"
       fill="url(#ae)"
       fill-rule="evenodd"
       id="path165"
       style="fill:url(#ae)" />
    <path
       d="m 160.56,919.94 c -0.0751,10e-4 -0.14374,0.0269 -0.21875,0.0312 -2.5645,1.6311 -3.7258,5.4423 -2.6875,9.3438 0.18495,0.932 0.6157,1.7129 0.78125,2.0938 1.4943,3.028 4.1724,4.9481 6.8438,4.8125 2.6429,-1.6359 3.8514,-5.5703 2.7188,-9.5625 -1.1436,-4.0308 -4.2994,-6.7678 -7.4375,-6.7188 z"
       fill="url(#k)"
       fill-rule="evenodd"
       id="path167"
       style="fill:url(#k)" />
    <path
       d="m 193.39,923.14 c 0.64648,1.1065 7.0205,-0.53845 9.7447,-1.8142 3.421,-2.2288 3.0063,-2.6953 3.0063,-2.6953 0,0 -2.3325,-3.7838 -3.8357,-3.0063 -1.5032,0.7775 -1.5032,2.0733 -1.5032,2.0733 l 0.622,0.933 c 0,0 -5.909,2.488 -6.842,2.6435 -0.933,0.1555 -1.8259,0.78137 -1.1922,1.866 z"
       fill="#ffffff"
       fill-opacity="0.90863"
       fill-rule="evenodd"
       id="path169" />
    <path
       d="m 161.56,928.5 c -1.0233,0.17814 -2.097,0.39127 -3.9062,0.8125 -1.2291,0.65071 -2.8076,1.4514 -3.9062,1.8438 -1.7601,0.6286 -3.7812,0.62499 -3.7812,0.625 l -0.125,3.6562 3.1562,-0.375 c 1.4061,-0.16543 3.8582,-2.2221 5.4375,-3.6562 1.2518,-0.84106 2.4858,-1.6362 3.5312,-1.75 l -0.40625,-1.1562 z"
       fill="#ffffff"
       fill-rule="evenodd"
       id="path171" />
    <path
       d="m 177.22,852.72 c -16.267,0 -37.96,8.6392 -43.875,9.625 -5.915,0.9858 -36.469,-0.24998 -36.469,-0.25 l -1,5.5938 c 4.1718,0.51845 11.451,2.3344 23.844,7.5938 24.456,10.379 28.716,14.092 33.625,17.844 1.2055,0.94496 1.5662,3.0902 0.9375,6.3125 0.6743,-1.7165 2.5363,-6.2788 3.4375,-7.2812 1.8128,-2.0165 7.6563,-5.1875 7.6562,-5.1875 -1e-4,0 -2.4451,1.987 -5.1562,5.4375 -2.7111,3.4505 -12.347,31.308 -10.375,26.625 1.972,-4.683 12.344,-26.875 12.344,-26.875 0,0 2.2654,-2.7003 21.688,-12.312 21.87,-10.824 36.719,-12.594 36.719,-12.594 l -14.312,-8.375 c 0,0 -12.796,-6.1563 -29.062,-6.1562 z"
       fill="url(#ad)"
       fill-rule="evenodd"
       id="path173"
       style="fill:url(#ad)" />
    <path
       d="m 211.62,862 c -4.5392,0.8097 -17.37,3.6489 -34.812,12.281 -19.422,9.6122 -21.688,12.313 -21.688,12.312 l -2.7188,5.8125 0.9375,0.71875 c 1.2055,0.94496 1.5662,3.0902 0.9375,6.3125 0.6743,-1.7165 2.5363,-6.2788 3.4375,-7.2812 1.8128,-2.0165 7.6563,-5.1875 7.6562,-5.1875 -1e-4,0 -2.4451,1.987 -5.1562,5.4375 -2.457,3.127 -10.587,26.293 -10.625,27.125 0.0371,-0.0524 0.12677,-0.20732 0.25,-0.5 1.9717,-4.6829 12.344,-26.875 12.344,-26.875 0,0 2.2654,-2.7003 21.688,-12.312 21.87,-10.824 36.719,-12.594 36.719,-12.594 l -8.9688,-5.25 z"
       fill="url(#ac)"
       fill-rule="evenodd"
       id="path175"
       style="fill:url(#ac)" />
    <g
       transform="translate(140)"
       fill-rule="evenodd"
       id="g201">
      <path
         d="m -63.621,895.03 10.584,11.729 -6.8655,-2.5746 8.5819,6.0074 -8.2959,-3.4328 5.7213,6.2934 17.736,12.015 31.181,10.012 4.577,-8.5819 -41.193,-17.45 -22.027,-14.017 z"
         fill="url(#ab)"
         id="path177"
         style="fill:url(#ab)" />
      <path
         d="m -69.226,899.79 c -3.3757,1.4622 -4.9146,2.1869 -7.3365,3.488 0.99634,0.37394 21.081,7.8832 28.188,11.062 7.2835,3.2584 17.639,10.177 21.281,12.094 3.642,1.917 23.562,14.75 23.562,14.75 l 1.625,1.8125 0.5625,3.0938 7.25,-7.75 -50.094,-26.938 -25.039,-11.613 z m -7.3365,3.488 c -2.8155,1.2573 -5.4942,2.5668 -7.9688,3.9688 l 0.0625,0.0312 c 2.473,-1.3985 5.1014,-2.7337 7.9062,-4 z m 67.375,41.969 c -2.3019,0.72507 -4.6031,1.4779 -7.3438,2.375 2.7332,-0.89463 5.044,-1.6494 7.3438,-2.375 z"
         fill="url(#aa)"
         opacity="0.88083"
         id="path179"
         style="fill:url(#aa)" />
      <path
         d="m -57.144,966.43 c 0,0 16.624,1.4933 34.514,-4.4702 17.89,-5.9635 25.209,-10.029 25.209,-10.029 l 5.9634,-1.8974 -2.304,-12.062 -7.5898,8.1319 -0.54213,-3.1172 c 0,0 -22.769,6.9121 -30.088,10.165 -7.319,3.2529 -25.163,13.28 -25.163,13.28 z"
         fill="#001a46"
         id="path181" />
      <path
         d="m -76.562,903.28 c -17.204,7.7672 -28.46,18.161 -30.156,29.469 2.033,5.9075 5.94,9.6834 17,18.156 9.5072,7.2833 22.564,12.029 32.562,15.5 3.7206,-2.0706 18.755,-10.391 25.188,-13.25 7.3187,-3.2528 30.062,-10.156 30.062,-10.156 l -1.625,-1.8125 c 0,0 -19.921,-12.833 -23.562,-14.75 -3.641,-1.917 -13.998,-8.8353 -21.281,-12.094 -7.1067,-3.1793 -27.191,-10.689 -28.188,-11.062 z"
         fill="#001e52"
         id="path183" />
      <path
         d="m -1.90625,943.03125 0.15625,0.75 -0.0625,-0.65625 z"
         fill="#ffffff"
         fill-opacity="0.71066"
         opacity="0.75"
         id="path185" />
      <path
         d="m -108.05,933.57 c 0,0 4.7393,9.6316 16.358,17.429 11.6187,7.7974 16.358,10.09 20.945,12.383 4.587,2.293 16.817,4.8922 16.817,4.8922 l -0.30576,4.1278 c 0,0 -3.822,-1.5288 -6.421,-1.5288 -2.599,0 -5.3509,0.15288 -8.1027,-0.15288 -2.7518,-0.30576 -22.168,-14.677 -25.684,-17.887 -3.516,-3.21 -9.6316,-9.02 -10.855,-10.702 -1.2234,-1.682 -2.7519,-8.8672 -2.7519,-8.5614 z"
         fill="url(#z)"
         id="path187"
         style="fill:url(#z)" />
      <path
         d="m -49.219,913.75 c -3.8952,2.1988 -13.239,7.4546 -17.719,9.8125 -5.4867,2.8878 -17.917,12.723 -21.094,17.344 -1.5721,2.2866 -2.9336,5.7463 -3.9062,8.6875 0.62913,0.4885 1.1932,0.94646 1.875,1.4688 9.5979,7.3528 22.781,12.152 32.875,15.656 3.7561,-2.0904 18.944,-10.489 25.438,-13.375 7.3886,-3.2838 30.344,-10.281 30.344,-10.281 l -1.625,-1.8125 c 0,-3e-5 -20.136,-12.971 -23.812,-14.906 -3.676,-1.935 -14.116,-8.898 -21.469,-12.188 l -0.90625,-0.40625 z"
         fill="url(#y)"
         opacity="0.75"
         id="path189"
         style="fill:url(#y)" />
      <path
         d="m -71.094,905.12 c 3.14,1.195 7.1906,2.7433 11.125,4.2812 -4.8233,-1.8862 -7.8302,-3.0366 -11.125,-4.2812 z m 11.125,4.2812 c -1.0248,0.27169 -6.345,-0.31972 -6.9945,-0.23853 -2.3102,0.28877 0.94314,4.0423 -7.3516,8.3513 -6.3384,3.2926 -12.87,-0.0462 -22.373,7.481 -6.577,5.21 -4.2398,9.3543 -6.2188,14.938 2.3924,2.7168 5.8188,5.6575 10.969,9.6562 0.97268,-2.9412 2.3342,-6.4009 3.9062,-8.6875 3.1765,-4.6204 15.607,-14.456 21.094,-17.344 4.48,-2.3579 13.824,-7.6136 17.719,-9.8125 -2.6646,-1.1587 -6.652,-2.7412 -10.75,-4.3438 z m -47.25,23.312 c 0.20376,0.5921 0.43953,1.1611 0.6875,1.7188 -0.24701,-0.56252 -0.48233,-1.1226 -0.6875,-1.7188 z"
         fill="url(#x)"
         opacity="0.75"
         id="path191"
         style="fill:url(#x)" />
      <path
         d="m -49.219,913.75 c -3.8952,2.1988 -13.239,7.4546 -17.719,9.8125 -5.4867,2.8878 -17.917,12.723 -21.094,17.344 -1.5721,2.2866 -2.9336,5.7463 -3.9062,8.6875 0.50534,0.39238 0.98389,0.78536 1.5,1.1875 0.98405,-2.762 2.2274,-5.7151 3.6562,-7.7812 3.3821,-4.8905 16.596,-15.318 22.438,-18.375 4.4528,-2.3298 13.11,-7.1392 17.656,-9.6875 -0.5474,-0.26631 -1.105,-0.54861 -1.625,-0.78125 l -0.90625,-0.40625 z"
         fill="#262e9f"
         opacity="0.75"
         id="path193" />
      <path
         d="m -47.219,914.69 c -4.3975,2.3198 -12.39,6.5438 -16.562,8.5938 -5.565,2.7339 -18.259,12.22 -21.562,16.75 -1.1805,1.6187 -2.2459,3.8498 -3.1562,6.0625 0.54063,-1.1327 1.1034,-2.204 1.7188,-3.0938 3.3821,-4.8905 16.596,-15.318 22.438,-18.375 4.4528,-2.3298 13.11,-7.1392 17.656,-9.6875 -0.17825,-0.0867 -0.35249,-0.16216 -0.53125,-0.25 z"
         fill="#000250"
         fill-opacity="0.76142"
         opacity="0.75"
         id="path195" />
      <path
         d="m -49.219,913.75 c -3.8952,2.1988 -13.239,7.4546 -17.719,9.8125 -5.4867,2.8878 -17.917,12.723 -21.094,17.344 -0.67986,0.98889 -1.3196,2.2092 -1.9062,3.5 0.49786,-0.98115 1.04,-1.9053 1.5938,-2.6875 3.4358,-4.8529 16.75,-15.133 22.625,-18.125 4.4225,-2.2522 12.914,-6.8543 17.531,-9.375 l -0.125,-0.0625 -0.90625,-0.40625 z"
         fill="#1c1c1c"
         fill-opacity="0.83249"
         opacity="0.75"
         id="path197" />
      <path
         d="m -36.949,955.53 c 0,0 8.2018,-5.2915 11.906,-6.8789 3.7042,-1.5874 11.377,-1.7197 11.377,-1.7197 0,0 -16.404,7.9372 -17.991,7.9372 -1.587,0 -5.0269,0.79372 -5.2914,0.66143 z"
         fill="url(#w)"
         opacity="0.5"
         id="path199"
         style="fill:url(#w)" />
    </g>
    <path
       d="m 12.831,963.04 2.4675,10.117 c 0,0 10.857,11.104 21.467,18.753 10.61,7.649 25.168,20.727 37.259,23.935 12.091,3.208 10.117,1.4805 10.117,1.4805 l 0.4935,-7.1557 c 0,0 -5.6752,0 -9.6232,-0.987 -3.948,-0.987 -26.896,-15.689 -36.272,-23.092 -9.376,-7.403 -26.402,-23.05 -25.909,-23.05 z"
       fill="#edf4ff"
       fill-rule="evenodd"
       id="path203" />
    <path
       d="m 12.831,964.04 2.4675,10.117 c 0,0 10.857,11.104 21.467,18.753 10.61,7.649 25.168,20.727 37.259,23.935 12.091,3.208 10.117,1.4805 10.117,1.4805 l 0.4935,-7.1557 c 0,0 -5.6752,0 -9.6232,-0.987 -3.948,-0.987 -26.896,-15.689 -36.272,-23.092 -9.376,-7.403 -26.402,-23.05 -25.909,-23.05 z"
       fill="#b2b2b2"
       fill-rule="evenodd"
       id="path205" />
    <path
       d="m 31.62,946.55 -4.7259,5.3318 2.3024,0.60589 c 0,0 3.5142,-1.4541 4.3624,-4.3624 0.8482,-2.9083 -2.4236,-11.27 -1.4541,-12.966 0.9695,-1.696 1.9388,3.7565 1.9388,3.7565 0,0 1.6965,-5.2106 4.2412,-9.573 2.5447,-4.3624 8.846,-13.087 8.846,-13.087 0,0 -9.573,11.512 -11.633,12.36 -2.06,0.848 -3.0294,-1.8177 -3.0294,-1.8177 l -8.7248,8.4824 c 0,0 4.12,0.60589 5.5742,3.1506 1.4542,2.54471 2.1812,7.9977 2.3024,8.1189 z"
       fill="url(#v)"
       fill-rule="evenodd"
       id="path207"
       style="fill:url(#v)" />
    <path
       transform="matrix(0.87434,-0.27988,0.26571,0.92094,-253.32,79.659)"
       d="m 19.152,960.15 a 3.20265,4.3125673 0 1 1 -6.4053,0 3.20265,4.3125673 0 1 1 6.4053,0 z"
       fill="url(#j)"
       fill-rule="evenodd"
       id="path209"
       style="fill:url(#j)" />
    <path
       d="m 77.71875,972.75 c -1.82784,0.0468 -3.99109,0.62332 -4.96875,1.96875 l 0.125,0.0312 c 0.48882,0.072 0.97561,0.1947 1.4375,0.34375 l 0.09375,0.0312 c 0.19756,0.0663 0.37082,0.13919 0.5625,0.21875 l 0.21875,0.0937 c 0.25298,0.11304 0.50891,0.23964 0.75,0.375 0.24533,0.13774 0.48697,0.30918 0.71875,0.46875 0.23624,0.16263 0.46665,0.31604 0.6875,0.5 l 0.09375,0.0625 c 0.18678,0.1586 0.35665,0.32693 0.53125,0.5 0.1746,0.17307 0.34084,0.34733 0.5,0.53125 0.0247,0.0285 0.03811,0.0649 0.0625,0.0937 0.18797,0.22231 0.36271,0.44774 0.53125,0.6875 0.16471,0.23432 0.32386,0.46907 0.46875,0.71875 0.14796,0.25498 0.28028,0.5116 0.40625,0.78125 0.03043,0.0651 0.06465,0.12156 0.09375,0.1875 0.0909,0.2037 0.1722,0.41391 0.25,0.625 0.09762,0.26701 0.17433,0.53477 0.25,0.8125 0.0027,0.01 -0.0027,0.0214 0,0.0312 0.0638,0.23688 0.14041,0.4749 0.1875,0.71875 0.0019,0.01 -0.0019,0.0213 0,0.0312 0.0019,0.01 -0.002,0.021 0,0.0312 0.1187,0.62747 0.1875,1.27261 0.1875,1.9375 0,0.3412 -0.02951,0.68586 -0.0625,1.03125 -0.002,0.0204 0.0021,0.0421 0,0.0625 -0.0095,0.0941 -0.0193,0.18713 -0.03125,0.28125 -0.03433,0.26161 -0.07172,0.52666 -0.125,0.78125 -0.40557,2.02898 -1.37253,3.97636 -2.875,5.25 4.91783,-0.26347 8.81242,-4.43592 8.84375,-9.84375 0.03141,-5.45282 -3.21281,-9.04246 -8.1875,-9.34375 -0.24343,-0.0146 -0.48888,-0.007 -0.75,0 z"
       fill="url(#u)"
       fill-rule="evenodd"
       id="path211"
       style="fill:url(#u)" />
    <path
       d="m 72.719,974.75 c -1.588,2.2554 -1.8427,3.1103 -2,6.4688 -0.23784,5.0779 2.8488,9.77 7.0914,10.722 2.0348,-1.7249 3.0961,-4.6796 3.0961,-7.4092 0,-5.0436 -3.5841,-9.1849 -8.1875,-9.7812 z"
       fill="url(#t)"
       fill-rule="evenodd"
       id="path213"
       style="fill:url(#t)" />
    <path
       d="m 31.754,952.6 3.3382,-2.364 c 0,0 0.78198,0.0918 13.538,8.7401 12.75602,8.64833 20.024,14.353 20.024,14.353 l -3.9165,4.5404 c 0,0 -19.226,-13.505 -20.956,-15.343 -1.73,-1.838 -12.262,-9.9829 -12.028,-9.9268 z"
       fill="url(#s)"
       fill-rule="evenodd"
       opacity="0.7"
       id="path215"
       style="fill:url(#s)" />
    <path
       d="m 27.625,956.875 -0.57445,1.09375 1.0818,1.3943 7.43015,6.4807 c 0.28181,1.40918 1.00366,3.00719 2.15625,4.5 2.45464,3.17919 5.86051,4.68943 7.59375,3.375 0.21666,-0.16431 0.38618,-0.36202 0.53125,-0.59375 l 0.125,0.0937 9.4375,5.46875 2,-0.40625 -11.28125,-8.3437 c -0.30051,-1.3766 -1.00798,-2.92826 -2.125,-4.375 -2.45464,-3.17919 -5.86051,-4.68947 -7.59375,-3.375 -0.31776,0.24098 -0.55409,0.55697 -0.71875,0.9375 L 35,962.6875 Z"
       fill="#c0c0c0"
       fill-opacity="0.90863"
       fill-rule="evenodd"
       id="path217" />
    <path
       d="m 19.932,938.23 c -1.1923,1.9378 -1.3835,2.6723 -1.5016,5.5578 -0.17857,4.3628 2.1389,8.3943 5.3242,9.2119 1.5277,-1.482 2.3245,-4.0206 2.3245,-6.3658 0,-4.3334 -2.6909,-7.8915 -6.1472,-8.4039 z"
       fill="url(#r)"
       fill-rule="evenodd"
       id="path219"
       style="fill:url(#r)" />
    <path
       d="m 23.68558,936.51586 c -1.37234,0.0402 -2.9965,0.53555 -3.73053,1.69152 l 0.09385,0.0269 c 0.367,0.0619 0.73249,0.16728 1.07927,0.29534 l 0.07039,0.0268 c 0.14833,0.0569 0.27841,0.11959 0.42232,0.18795 l 0.16424,0.0806 c 0.18994,0.0971 0.38209,0.20589 0.5631,0.32219 0.18101,0.1163 0.36562,0.26564 0.53964,0.40274 0.17737,0.13973 0.35036,0.27154 0.51617,0.42959 0.02195,0.0209 0.04865,0.0325 0.07039,0.0537 0.14023,0.13627 0.26777,0.2809 0.39886,0.4296 0.13109,0.1487 0.2559,0.29842 0.3754,0.45644 0.01855,0.0245 0.02861,0.0558 0.04692,0.0805 0.14113,0.19101 0.27232,0.3847 0.39886,0.59069 0.12367,0.20133 0.24315,0.40302 0.35194,0.61754 0.11109,0.21908 0.21043,0.43956 0.30501,0.67124 0.02285,0.056 0.04854,0.10444 0.07039,0.16109 0.06825,0.17502 0.12929,0.35563 0.1877,0.53699 0.07329,0.22941 0.13088,0.45947 0.1877,0.69809 0.002,0.008 -0.002,0.0184 0,0.0268 0.0479,0.20352 0.10542,0.40803 0.14077,0.61754 0.0015,0.009 -0.0014,0.0183 0,0.0268 0.0014,0.009 -0.0015,0.0181 0,0.0268 0.08912,0.53911 0.14078,1.0934 0.14078,1.66466 0,0.29316 -0.02215,0.58928 -0.04693,0.88604 -0.0015,0.0176 0.0016,0.0362 0,0.0537 -0.0071,0.0808 -0.01449,0.16078 -0.02346,0.24165 -0.02578,0.22477 -0.05384,0.4525 -0.09385,0.67124 -0.3045,1.74326 -1.03049,3.41642 -2.15855,4.51071 3.6923,-0.22637 6.61635,-3.81127 6.63987,-8.45759 0.02358,-4.68497 -2.41217,-7.76912 -6.14716,-8.02799 -0.18276,-0.0126 -0.36705,-0.006 -0.5631,0 z"
       fill="#ffffff"
       fill-rule="evenodd"
       opacity="0.65876"
       id="path221" />
    <path
       d="m 72.312,996.06 c -2.5507,-0.35672 -3.9688,2.838 -3.9688,5.375 0,3.1225 2.5338,5.6562 5.6562,5.6563 1.0006,0 1.9342,-0.2311 2.75,-0.6876 0.19411,-0.7504 0.3125,-1.5279 0.3125,-2.3437 0,-3.5233 -2.1993,-7.6433 -4.75,-8 z"
       fill="url(#i)"
       fill-rule="evenodd"
       id="path223"
       style="fill:url(#i)" />
    <path
       transform="matrix(0.79185,0.61071,0,1,0,0)"
       d="m 38.387,947.55 h 25.316 v 5.3719 H 38.387 Z"
       fill="#ffffff"
       fill-rule="evenodd"
       opacity="0.75"
       id="path225" />
    <path
       d="m 53.19,989.93 c 0,0 -1.9388,1.9388 3.1506,4.9683 5.0894,3.0295 13.693,10.542 13.693,10.542 l -2.5447,-4.2412 c 0,0 -7.6342,-6.786 -9.9366,-8.1189 -2.3024,-1.3329 -3.9989,-3.2718 -4.3624,-3.1506 z"
       fill="url(#q)"
       fill-rule="evenodd"
       id="path227"
       style="fill:url(#q)" />
    <path
       d="m 78.879,995.26 c -0.72707,0.24235 -7.2707,3.2718 -11.148,-2.1812 -3.8773,-5.453 0.12118,-11.512 0.12118,-11.512 0,0 0.96942,7.3918 4.2412,9.9366 3.27178,2.5448 6.9071,3.7565 6.786,3.7565 z"
       fill="url(#p)"
       fill-rule="evenodd"
       id="path229"
       style="fill:url(#p)" />
    <path
       d="m 19.927,950.16 -5.1374,3.7104 c 0,0 2.1406,1.9979 3.9958,2.426 1.8552,0.4281 4.9947,-1.4271 4.9947,-1.4271 0,0 -1.9979,-0.42812 -2.5687,-1.8552 C 20.6406,951.58702 19.927,950.16 19.927,950.16 Z"
       fill="url(#o)"
       fill-rule="evenodd"
       id="path231"
       style="fill:url(#o)" />
    <path
       d="m 114.22,875.34 c -4.7814,3.9444 -10.452,8.9908 -12.812,12.531 l -9.6875,14.531 c 12.471,6.813 24.793,12.217 37.656,18.406 6.971,3.4848 10.658,3.3204 12.875,-0.71875 4.8739,-7.9306 7.5193,-13.862 9.875,-22.438 0.17977,-3.2296 -6.0071,-6.2032 -9.9062,-9.0312 -8.1408,-4.4119 -18.331,-9.5113 -28,-13.281 z"
       fill="url(#n)"
       fill-rule="evenodd"
       id="path233"
       style="fill:url(#n)" />
    <path
       d="m 241.36,920.32 -1.1172,0.4974 c 0.48336,-0.14033 0.97258,-0.19843 1.4356,-0.21496 2.3902,-0.0853 3.4653,-0.9254 6.8963,2.2742 2.7721,2.5852 2.0292,10.819 2.6918,11.399 1.0866,0.95057 1.9236,2.5942 3.8455,1.8389 0.27461,-1.9378 0.22884,-4.4498 -0.4871,-7.7539 -2.4735,-11.415 -13.265,-8.0406 -13.265,-8.0406 z"
       fill="#052355"
       fill-rule="evenodd"
       id="path235" />
    <path
       transform="matrix(0.7761,0,-0.36979,0.85382,401.75,137.21)"
       d="m 244.58,942.07 a 8.3995,16.699398 0 1 1 -16.799,0 8.3995,16.699398 0 1 1 16.799,0 z"
       fill="#ffffff"
       fill-opacity="0.66497"
       fill-rule="evenodd"
       stroke="#656565"
       stroke-width="0.9"
       id="path237" />
    <path
       d="m 147.43,989.36 0.80522,5.6366 c 0,0 39.188,-21.741 45.629,-24.694 6.441,-2.953 20.399,-11.542 20.399,-11.542 l -12.615,1.0736 c 0,0 -33.819,20.399 -41.603,22.815 -7.784,2.416 -12.078,6.4418 -12.615,6.7102 z"
       fill="url(#m)"
       fill-rule="evenodd"
       id="path239"
       style="fill:url(#m)" />
    <g
       transform="matrix(1.0217,-0.085612,0.085612,1.0217,-74.591,220.07)"
       fill="#003185"
       fill-rule="evenodd"
       id="g245">
      <path
         d="m 137.16,700.06 -1.8789,1.691 -12.589,-18.413 -5.261,-4.3215 21.044,10.334 -3.3821,-0.56368 -10.146,-4.1336 12.213,15.407 z"
         id="path241" />
      <path
         d="m 109.19,684 -1.3916,0.96488 -6.022,-14.552 -2.8911,-3.6976 12.336,9.8781 -2.1044,-0.8123 -6.042,-4.1628 6.115,12.382 z"
         id="path243" />
    </g>
    <g
       transform="translate(-10.953,222.64)"
       fill="#001945"
       fill-rule="evenodd"
       id="g253">
      <path
         d="m 132.56,705.66 4.1544,-0.75535 -18.128,-10.008 13.974,10.764 z"
         id="path247" />
      <path
         d="m 126.14,703.96 -7.5534,-8.6865 h -2.6437 l 10.197,8.6865 z"
         id="path249" />
      <path
         d="m 109.15,687.72 -3.7767,0.37767 -14.729,-6.9869 16.806,9.0641 1.6995,-2.4549 z"
         id="path251" />
    </g>
    <path
       d="m 136.95,847.97 c 0,0 26.066,4.1156 41.156,10.975 15.09,6.8594 19.444,10.27 19.444,10.27"
       fill="none"
       stroke="#000268"
       id="path255" />
    <path
       d="m 136.36,848.59 c 0,0 26.066,4.1156 41.156,10.975 15.09,6.8594 19.444,10.27 19.444,10.27"
       fill="none"
       stroke="#8587ff"
       id="path257" />
    <path
       d="m 203.2,876.38 c 0,0 3.0423,38.079 3.0962,40.993 0.10763,6.1224 -0.57583,24.269 -1.2826,27.803 -0.70677,3.534 -2.3589,13.429 -2.3589,13.429"
       fill="none"
       stroke="#000021"
       id="path259" />
  </g>
</svg>
